# xmcd CD database file
#
# Track frame offsets:
#	150
#	14688
#	24460
#	39194
#	51786
#	62947
#	73865
#	79748
#	94143
#	103508
#	119535
#	136505
#	152981
#	166657
#	182958
#	196742
#	210485
#	224610
#
# Disc length: 3203 seconds
#
# Revision: 1
# Processed by: cddbd v1.5.2PL0 Copyright (c) Steve Scherf et al.
# Submitted via: CDex 1.51
#
DISCID=fa0c8112
DTITLE=Billie Holiday - [CD 04-10] - Blue Turning Over You
DYEAR=1900
DGENRE=Jazz
TTITLE0=Detour Ahead  [1951]
TTITLE1=Blue Turning Over You  [1951]
TTITLE2=Rocky Mountain Blues  [1951]
TTITLE3=Be Fair To Me Baby  [1951]
TTITLE4=Ain't Nobody's Business If I Do  [1951]
TTITLE5=Lover Come Back To Me  [1951]
TTITLE6=You're Driving Me Crazy  [1951]
TTITLE7=He's Funny That Way  [1951]
TTITLE8=Miss Brown To You  [1951]
TTITLE9=Billie's  (i.e. I Love My Man  [1951]
TTITLE10=These Foolish Things  [1952]
TTITLE11=Solitude  [1952]
TTITLE12=I Only Have Eyes For You  [1952]
TTITLE13=Blue Moon  [1952]
TTITLE14=East Of The Sun  (West Of The Moon)  [1952]
TTITLE15=You Go To My Head  [1952]
TTITLE16=Easy To Love  [1952]
TTITLE17=You Turned The Tables On Me  [1952]
EXTD=
EXTT0=
EXTT1=
EXTT2=
EXTT3=
EXTT4=
EXTT5=
EXTT6=
EXTT7=
EXTT8=
EXTT9=
EXTT10=
EXTT11=
EXTT12=
EXTT13=
EXTT14=
EXTT15=
EXTT16=
EXTT17=
PLAYORDER=
